<?xml version="1.0" standalone="no"?>
<!DOCTYPE svg PUBLIC "-//W3C//DTD SVG 20010904//EN"
 "http://www.w3.org/TR/2001/REC-SVG-20010904/DTD/svg10.dtd">
<svg version="1.0" xmlns="http://www.w3.org/2000/svg"
 width="150.000000pt" height="150.000000pt" viewBox="0 0 150.000000 150.000000"
 preserveAspectRatio="xMidYMid meet">
<metadata>
Created by potrace 1.14, written by Peter Selinger 2001-2017
</metadata>
<g transform="translate(0.000000,150.000000) scale(0.100000,-0.100000)"
fill="#000000" stroke="none">
<path d="M559 1455 c-209 -54 -398 -207 -490 -400 -13 -27 -24 -52 -25 -55 0
-3 -4 -17 -8 -31 -4 -14 -9 -32 -10 -40 -2 -8 -7 -23 -12 -34 -10 -23 -12
-212 -2 -270 7 -43 16 -80 26 -105 3 -8 6 -17 6 -20 1 -3 16 -35 34 -71 88
-177 260 -318 462 -380 109 -34 312 -33 420 0 195 60 355 186 450 356 32 57
71 162 78 215 9 55 9 213 1 260 -10 59 -56 179 -91 238 -35 60 -175 209 -219
233 -114 62 -156 81 -204 94 -30 7 -60 17 -67 21 -6 4 -68 8 -137 9 -102 2
-143 -2 -212 -20z"/>
</g>
</svg>
